<?xml version="1.0" standalone="no"?>
<!DOCTYPE svg PUBLIC "-//W3C//DTD SVG 20010904//EN"
 "http://www.w3.org/TR/2001/REC-SVG-20010904/DTD/svg10.dtd">
<svg version="1.0" xmlns="http://www.w3.org/2000/svg"
 width="800.000000pt" height="500.000000pt" viewBox="0 0 800.000000 500.000000"
 preserveAspectRatio="xMidYMid meet">
<metadata>
Created by potrace 1.16, written by Peter Selinger 2001-2019
</metadata>
<g transform="translate(0.000000,500.000000) scale(0.100000,-0.100000)"
fill="#000000" stroke="none">
<path d="M0 2500 l0 -2500 4000 0 4000 0 0 2500 0 2500 -4000 0 -4000 0 0
-2500z m4323 419 c177 -89 326 -164 330 -169 4 -4 -5 -13 -21 -19 -28 -12 -45
-5 -311 128 -154 78 -283 141 -286 141 -3 0 -5 -25 -5 -55 l0 -55 225 -112
c124 -62 225 -116 225 -119 0 -4 -13 -12 -29 -18 -27 -12 -43 -5 -240 93
l-211 106 -253 -127 -252 -128 0 -70 0 -70 230 -117 c127 -64 234 -117 238
-118 4 0 7 25 5 56 l-3 57 -210 106 c-207 104 -242 131 -196 146 14 4 83 -26
230 -100 l210 -105 354 176 c225 113 360 175 370 171 15 -6 17 -32 17 -237 l0
-230 -25 0 -25 0 0 200 0 200 -65 -32 -65 -32 0 -88 0 -88 -280 -140 -280
-140 -280 140 -281 140 3 107 3 106 262 131 262 131 0 58 c1 31 -1 57 -4 57
-3 0 -141 -68 -308 -151 -256 -129 -299 -153 -284 -163 41 -25 45 -30 33 -52
-11 -21 -12 -21 -76 10 -37 18 -66 38 -68 48 -3 14 76 57 365 202 202 102 369
185 371 185 2 1 148 -71 325 -160z m-828 -1169 c0 -22 -5 -26 -40 -30 l-40 -5
0 -100 0 -100 -32 -3 -33 -3 0 105 0 105 -37 3 c-33 3 -38 7 -41 31 l-3 28
113 -3 113 -3 0 -25z m203 -107 l3 -133 -36 0 -35 0 0 136 0 135 33 -3 32 -3
3 -132z m352 107 c0 -28 -2 -30 -40 -30 l-40 0 0 -105 0 -105 -30 0 -30 0 0
104 0 105 -37 3 c-33 3 -38 7 -41 31 l-3 27 110 0 111 0 0 -30z m202 -77 l3
-108 58 -3 c53 -3 57 -5 57 -27 0 -25 -1 -25 -90 -25 l-90 0 0 135 0 135 30 0
29 0 3 -107z m438 82 c0 -22 -4 -24 -57 -27 -51 -3 -58 -6 -61 -25 -3 -20 2
-22 50 -25 49 -3 53 -5 53 -28 0 -23 -4 -25 -52 -28 -51 -3 -53 -4 -53 -33 l0
-29 65 0 c63 0 65 -1 65 -25 0 -25 0 -25 -95 -25 l-95 0 0 135 0 135 90 0 c89
0 90 0 90 -25z"/>
<path d="M4268 2439 l-238 -119 0 -55 c0 -30 2 -55 5 -55 3 0 111 53 240 117
l235 118 0 57 c0 32 -1 58 -2 57 -2 0 -110 -54 -240 -120z"/>
</g>
</svg>
